<svg width="40" height="40" viewBox="64 64 40 40" fill="none" xmlns="http://www.w3.org/2000/svg">
  <rect x="64" y="67.5" width="35.04" height="26.32" rx="7.36" fill="white" fill-opacity="0.4"/>
  <rect x="64" y="75.05" width="35.04" height="28.95" rx="7.36" fill="white" fill-opacity="0.3"/>
  <rect x="88" y="64" width="3" height="8" rx="1.5" fill="#ECFFC1"/>
  <rect x="72" y="64" width="3" height="8" rx="1.5" fill="#ECFFC1"/>
  <rect x="72.76" y="82.07" width="3.5" height="3.5" rx="1.75" fill="white"/>
  <rect x="79.77" y="82.07" width="3.5" height="3.5" rx="1.75" fill="white"/>
  <rect x="86.77" y="82.07" width="3.5" height="3.5" rx="1.75" fill="white"/>
  <rect x="72.76" y="88.2" width="3.5" height="3.5" rx="1.75" fill="white"/>
  <rect x="79.77" y="88.2" width="3.5" height="3.5" rx="1.75" fill="white"/>
  <rect x="86.77" y="88.2" width="3.5" height="3.5" rx="1.75" fill="white"/>
  <rect x="72.76" y="94.34" width="3.5" height="3.5" rx="1.75" fill="white"/>
  <rect x="79.77" y="94.34" width="3.5" height="3.5" rx="1.75" fill="white"/>
  <rect x="86.77" y="94.34" width="3.5" height="3.5" rx="1.75" fill="white"/>
</svg>
